<svg xmlns="http://www.w3.org/2000/svg" width="880" height="420" viewBox="0 0 880 420" font-family="-apple-system, Segoe UI, Helvetica, Arial, sans-serif" font-size="12">
<rect width="880" height="420" fill="#ffffff"/>
<text x="440.0" y="22" text-anchor="middle" fill="#24292f" font-size="15" font-weight="600">Single client, pipelined (-P 16) — rps (higher is better)</text>
<line x1="70" y1="350.0" x2="860" y2="350.0" stroke="#d0d7de" stroke-width="1"/>
<text x="62" y="354.0" text-anchor="end" fill="#24292f">0</text>
<line x1="70" y1="292.0" x2="860" y2="292.0" stroke="#d0d7de" stroke-width="1"/>
<text x="62" y="296.0" text-anchor="end" fill="#24292f">102,803</text>
<line x1="70" y1="234.0" x2="860" y2="234.0" stroke="#d0d7de" stroke-width="1"/>
<text x="62" y="238.0" text-anchor="end" fill="#24292f">205,607</text>
<line x1="70" y1="176.0" x2="860" y2="176.0" stroke="#d0d7de" stroke-width="1"/>
<text x="62" y="180.0" text-anchor="end" fill="#24292f">308,411</text>
<line x1="70" y1="118.00000000000003" x2="860" y2="118.00000000000003" stroke="#d0d7de" stroke-width="1"/>
<text x="62" y="122.00000000000003" text-anchor="end" fill="#24292f">411,214</text>
<line x1="70" y1="60.00000000000006" x2="860" y2="60.00000000000006" stroke="#d0d7de" stroke-width="1"/>
<text x="62" y="64.00000000000006" text-anchor="end" fill="#24292f">514,018</text>
<line x1="70" y1="60" x2="70" y2="350" stroke="#57606a" stroke-width="1"/>
<line x1="70" y1="350" x2="860" y2="350" stroke="#57606a" stroke-width="1"/>
<text x="119.375" y="368" text-anchor="middle" fill="#24292f">LPUSH</text>
<rect x="81.4" y="108.9" width="35.5" height="241.1" fill="#3fb950"/>
<rect x="121.8" y="132.2" width="35.5" height="217.8" fill="#f85149"/>
<text x="218.125" y="368" text-anchor="middle" fill="#24292f">SADD</text>
<rect x="180.1" y="131.3" width="35.5" height="218.7" fill="#3fb950"/>
<rect x="220.6" y="149.2" width="35.5" height="200.8" fill="#f85149"/>
<text x="316.875" y="368" text-anchor="middle" fill="#24292f">LRANGE_100</text>
<rect x="278.9" y="290.4" width="35.5" height="59.6" fill="#3fb950"/>
<rect x="319.3" y="289.5" width="35.5" height="60.5" fill="#f85149"/>
<text x="415.625" y="368" text-anchor="middle" fill="#24292f">RPUSH (rand)</text>
<rect x="377.6" y="202.7" width="35.5" height="147.3" fill="#3fb950"/>
<rect x="418.1" y="154.1" width="35.5" height="195.9" fill="#f85149"/>
<text x="514.375" y="368" text-anchor="middle" fill="#24292f">LPOP (rand)</text>
<rect x="476.4" y="201.1" width="35.5" height="148.9" fill="#3fb950"/>
<rect x="516.8" y="152.0" width="35.5" height="198.0" fill="#f85149"/>
<text x="613.125" y="368" text-anchor="middle" fill="#24292f">RPOP (rand)</text>
<rect x="575.1" y="180.6" width="35.5" height="169.4" fill="#3fb950"/>
<rect x="615.6" y="120.7" width="35.5" height="229.3" fill="#f85149"/>
<text x="711.875" y="368" text-anchor="middle" fill="#24292f">LLEN (rand)</text>
<rect x="673.9" y="126.1" width="35.5" height="223.9" fill="#3fb950"/>
<rect x="714.3" y="112.9" width="35.5" height="237.1" fill="#f85149"/>
<text x="810.625" y="368" text-anchor="middle" fill="#24292f">SCARD (rand)</text>
<rect x="772.6" y="86.4" width="35.5" height="263.6" fill="#3fb950"/>
<rect x="813.1" y="113.9" width="35.5" height="236.1" fill="#f85149"/>
<rect x="70" y="391" width="14" height="14" fill="#3fb950"/>
<text x="90" y="402" fill="#24292f">Oktoplus</text>
<rect x="230" y="391" width="14" height="14" fill="#f85149"/>
<text x="250" y="402" fill="#24292f">Redis</text>
</svg>
