<svg xmlns="http://www.w3.org/2000/svg" width="880" height="420" viewBox="0 0 880 420" font-family="-apple-system, Segoe UI, Helvetica, Arial, sans-serif" font-size="12">
<rect width="880" height="420" fill="#ffffff"/>
<text x="440.0" y="22" text-anchor="middle" fill="#24292f" font-size="15" font-weight="600">Single client, pipelined (-P 16) — rps (higher is better)</text>
<line x1="70" y1="350.0" x2="860" y2="350.0" stroke="#d0d7de" stroke-width="1"/>
<text x="62" y="354.0" text-anchor="end" fill="#24292f">0</text>
<line x1="70" y1="292.0" x2="860" y2="292.0" stroke="#d0d7de" stroke-width="1"/>
<text x="62" y="296.0" text-anchor="end" fill="#24292f">101,851</text>
<line x1="70" y1="234.0" x2="860" y2="234.0" stroke="#d0d7de" stroke-width="1"/>
<text x="62" y="238.0" text-anchor="end" fill="#24292f">203,703</text>
<line x1="70" y1="176.0" x2="860" y2="176.0" stroke="#d0d7de" stroke-width="1"/>
<text x="62" y="180.0" text-anchor="end" fill="#24292f">305,555</text>
<line x1="70" y1="118.0" x2="860" y2="118.0" stroke="#d0d7de" stroke-width="1"/>
<text x="62" y="122.0" text-anchor="end" fill="#24292f">407,407</text>
<line x1="70" y1="60.0" x2="860" y2="60.0" stroke="#d0d7de" stroke-width="1"/>
<text x="62" y="64.0" text-anchor="end" fill="#24292f">509,259</text>
<line x1="70" y1="60" x2="70" y2="350" stroke="#57606a" stroke-width="1"/>
<line x1="70" y1="350" x2="860" y2="350" stroke="#57606a" stroke-width="1"/>
<text x="119.375" y="368" text-anchor="middle" fill="#24292f">LPUSH</text>
<rect x="81.4" y="86.4" width="35.5" height="263.6" fill="#3fb950"/>
<rect x="121.8" y="124.9" width="35.5" height="225.1" fill="#f85149"/>
<text x="218.125" y="368" text-anchor="middle" fill="#24292f">SADD</text>
<rect x="180.1" y="111.7" width="35.5" height="238.3" fill="#3fb950"/>
<rect x="220.6" y="157.0" width="35.5" height="193.0" fill="#f85149"/>
<text x="316.875" y="368" text-anchor="middle" fill="#24292f">LRANGE_100</text>
<rect x="278.9" y="288.0" width="35.5" height="62.0" fill="#3fb950"/>
<rect x="319.3" y="288.2" width="35.5" height="61.8" fill="#f85149"/>
<text x="415.625" y="368" text-anchor="middle" fill="#24292f">RPUSH (rand)</text>
<rect x="377.6" y="220.0" width="35.5" height="130.0" fill="#3fb950"/>
<rect x="418.1" y="148.1" width="35.5" height="201.9" fill="#f85149"/>
<text x="514.375" y="368" text-anchor="middle" fill="#24292f">LPOP (rand)</text>
<rect x="476.4" y="213.4" width="35.5" height="136.6" fill="#3fb950"/>
<rect x="516.8" y="116.6" width="35.5" height="233.4" fill="#f85149"/>
<text x="613.125" y="368" text-anchor="middle" fill="#24292f">RPOP (rand)</text>
<rect x="575.1" y="155.6" width="35.5" height="194.4" fill="#3fb950"/>
<rect x="615.6" y="128.4" width="35.5" height="221.6" fill="#f85149"/>
<text x="711.875" y="368" text-anchor="middle" fill="#24292f">LLEN (rand)</text>
<rect x="673.9" y="91.2" width="35.5" height="258.8" fill="#3fb950"/>
<rect x="714.3" y="130.1" width="35.5" height="219.9" fill="#f85149"/>
<text x="810.625" y="368" text-anchor="middle" fill="#24292f">SCARD (rand)</text>
<rect x="772.6" y="95.8" width="35.5" height="254.2" fill="#3fb950"/>
<rect x="813.1" y="119.5" width="35.5" height="230.5" fill="#f85149"/>
<rect x="70" y="391" width="14" height="14" fill="#3fb950"/>
<text x="90" y="402" fill="#24292f">Oktoplus</text>
<rect x="230" y="391" width="14" height="14" fill="#f85149"/>
<text x="250" y="402" fill="#24292f">Redis</text>
</svg>
