<svg xmlns="http://www.w3.org/2000/svg" width="880" height="380" viewBox="0 0 880 380" font-family="-apple-system, Segoe UI, Helvetica, Arial, sans-serif" font-size="12">
<rect width="880" height="380" fill="#ffffff"/>
<text x="440.0" y="22" text-anchor="middle" fill="#24292f" font-size="15" font-weight="600">RPUSH (random key, -P 16), varying clients — rps (higher is better; labels = CPU cores saturated)</text>
<line x1="70" y1="320.0" x2="860" y2="320.0" stroke="#d0d7de" stroke-width="1"/>
<text x="62" y="324.0" text-anchor="end" fill="#24292f">0</text>
<line x1="70" y1="268.0" x2="860" y2="268.0" stroke="#d0d7de" stroke-width="1"/>
<text x="62" y="272.0" text-anchor="end" fill="#24292f">241,758</text>
<line x1="70" y1="216.0" x2="860" y2="216.0" stroke="#d0d7de" stroke-width="1"/>
<text x="62" y="220.0" text-anchor="end" fill="#24292f">483,516</text>
<line x1="70" y1="164.0" x2="860" y2="164.0" stroke="#d0d7de" stroke-width="1"/>
<text x="62" y="168.0" text-anchor="end" fill="#24292f">725,274</text>
<line x1="70" y1="112.0" x2="860" y2="112.0" stroke="#d0d7de" stroke-width="1"/>
<text x="62" y="116.0" text-anchor="end" fill="#24292f">967,032</text>
<line x1="70" y1="60.0" x2="860" y2="60.0" stroke="#d0d7de" stroke-width="1"/>
<text x="62" y="64.0" text-anchor="end" fill="#24292f">1,208,791</text>
<line x1="70" y1="60" x2="70" y2="320" stroke="#57606a" stroke-width="1"/>
<line x1="70" y1="320" x2="860" y2="320" stroke="#57606a" stroke-width="1"/>
<text x="70.0" y="338" text-anchor="middle" fill="#24292f">10</text>
<text x="333.3333333333333" y="338" text-anchor="middle" fill="#24292f">50</text>
<text x="596.6666666666666" y="338" text-anchor="middle" fill="#24292f">100</text>
<text x="860.0" y="338" text-anchor="middle" fill="#24292f">200</text>
<text x="440.0" y="352" text-anchor="middle" fill="#24292f">concurrent clients</text>
<polyline fill="none" stroke="#3fb950" stroke-width="2.5" points="70.0,107.0 333.3,109.1 596.7,83.6 860.0,98.3"/>
<circle cx="70.0" cy="107.0" r="3.5" fill="#3fb950"/>
<circle cx="333.3" cy="109.1" r="3.5" fill="#3fb950"/>
<circle cx="596.7" cy="83.6" r="3.5" fill="#3fb950"/>
<circle cx="860.0" cy="98.3" r="3.5" fill="#3fb950"/>
<text x="70.0" y="97.0" text-anchor="middle" fill="#3fb950" font-size="10" font-weight="600">1.9 cores</text>
<text x="333.3" y="99.1" text-anchor="middle" fill="#3fb950" font-size="10" font-weight="600">1.8 cores</text>
<text x="596.7" y="73.6" text-anchor="middle" fill="#3fb950" font-size="10" font-weight="600">1.1 cores</text>
<text x="860.0" y="88.3" text-anchor="middle" fill="#3fb950" font-size="10" font-weight="600">0.9 cores</text>
<polyline fill="none" stroke="#f85149" stroke-width="2.5" points="70.0,145.1 333.3,124.5 596.7,147.9 860.0,139.3"/>
<circle cx="70.0" cy="145.1" r="3.5" fill="#f85149"/>
<circle cx="333.3" cy="124.5" r="3.5" fill="#f85149"/>
<circle cx="596.7" cy="147.9" r="3.5" fill="#f85149"/>
<circle cx="860.0" cy="139.3" r="3.5" fill="#f85149"/>
<text x="70.0" y="163.1" text-anchor="middle" fill="#f85149" font-size="10" font-weight="600">0.8 cores</text>
<text x="333.3" y="142.5" text-anchor="middle" fill="#f85149" font-size="10" font-weight="600">0.8 cores</text>
<text x="596.7" y="165.9" text-anchor="middle" fill="#f85149" font-size="10" font-weight="600">0.6 cores</text>
<text x="860.0" y="157.3" text-anchor="middle" fill="#f85149" font-size="10" font-weight="600">0.4 cores</text>
<rect x="70" y="361" width="14" height="14" fill="#3fb950"/>
<text x="90" y="372" fill="#24292f">Oktoplus</text>
<rect x="230" y="361" width="14" height="14" fill="#f85149"/>
<text x="250" y="372" fill="#24292f">Redis</text>
</svg>
