<svg xmlns="http://www.w3.org/2000/svg" width="880" height="420" viewBox="0 0 880 420" font-family="-apple-system, Segoe UI, Helvetica, Arial, sans-serif" font-size="12">
<rect width="880" height="420" fill="#ffffff"/>
<text x="440.0" y="22" text-anchor="middle" fill="#24292f" font-size="15" font-weight="600">Residual RSS after FLUSHALL — KiB (lower is better)</text>
<line x1="70" y1="350.0" x2="860" y2="350.0" stroke="#d0d7de" stroke-width="1"/>
<text x="62" y="354.0" text-anchor="end" fill="#24292f">0</text>
<line x1="70" y1="292.0" x2="860" y2="292.0" stroke="#d0d7de" stroke-width="1"/>
<text x="62" y="296.0" text-anchor="end" fill="#24292f">8,544</text>
<line x1="70" y1="234.0" x2="860" y2="234.0" stroke="#d0d7de" stroke-width="1"/>
<text x="62" y="238.0" text-anchor="end" fill="#24292f">17,089</text>
<line x1="70" y1="175.99999999999997" x2="860" y2="175.99999999999997" stroke="#d0d7de" stroke-width="1"/>
<text x="62" y="179.99999999999997" text-anchor="end" fill="#24292f">25,634</text>
<line x1="70" y1="118.00000000000003" x2="860" y2="118.00000000000003" stroke="#d0d7de" stroke-width="1"/>
<text x="62" y="122.00000000000003" text-anchor="end" fill="#24292f">34,179</text>
<line x1="70" y1="60.0" x2="860" y2="60.0" stroke="#d0d7de" stroke-width="1"/>
<text x="62" y="64.0" text-anchor="end" fill="#24292f">42,724</text>
<line x1="70" y1="60" x2="70" y2="350" stroke="#57606a" stroke-width="1"/>
<line x1="70" y1="350" x2="860" y2="350" stroke="#57606a" stroke-width="1"/>
<text x="119.375" y="368" text-anchor="middle" fill="#24292f">100k/3B</text>
<rect x="81.4" y="167.8" width="35.5" height="182.2" fill="#3fb950"/>
<rect x="121.8" y="281.6" width="35.5" height="68.4" fill="#f85149"/>
<text x="218.125" y="368" text-anchor="middle" fill="#24292f">100k/64B</text>
<rect x="180.1" y="162.5" width="35.5" height="187.5" fill="#3fb950"/>
<rect x="220.6" y="281.7" width="35.5" height="68.3" fill="#f85149"/>
<text x="316.875" y="368" text-anchor="middle" fill="#24292f">100k/256B</text>
<rect x="278.9" y="155.8" width="35.5" height="194.2" fill="#3fb950"/>
<rect x="319.3" y="281.6" width="35.5" height="68.4" fill="#f85149"/>
<text x="415.625" y="368" text-anchor="middle" fill="#24292f">100k/1024B</text>
<rect x="377.6" y="161.6" width="35.5" height="188.4" fill="#3fb950"/>
<rect x="418.1" y="275.3" width="35.5" height="74.7" fill="#f85149"/>
<text x="514.375" y="368" text-anchor="middle" fill="#24292f">1M/3B</text>
<rect x="476.4" y="147.5" width="35.5" height="202.5" fill="#3fb950"/>
<rect x="516.8" y="271.8" width="35.5" height="78.2" fill="#f85149"/>
<text x="613.125" y="368" text-anchor="middle" fill="#24292f">1M/64B</text>
<rect x="575.1" y="143.7" width="35.5" height="206.3" fill="#3fb950"/>
<rect x="615.6" y="270.3" width="35.5" height="79.7" fill="#f85149"/>
<text x="711.875" y="368" text-anchor="middle" fill="#24292f">1M/256B</text>
<rect x="673.9" y="135.0" width="35.5" height="215.0" fill="#3fb950"/>
<rect x="714.3" y="253.7" width="35.5" height="96.3" fill="#f85149"/>
<text x="810.625" y="368" text-anchor="middle" fill="#24292f">1M/1024B</text>
<rect x="772.6" y="86.4" width="35.5" height="263.6" fill="#3fb950"/>
<rect x="813.1" y="188.8" width="35.5" height="161.2" fill="#f85149"/>
<rect x="70" y="391" width="14" height="14" fill="#3fb950"/>
<text x="90" y="402" fill="#24292f">Oktoplus</text>
<rect x="230" y="391" width="14" height="14" fill="#f85149"/>
<text x="250" y="402" fill="#24292f">Redis</text>
</svg>
