<svg xmlns="http://www.w3.org/2000/svg" width="880" height="380" viewBox="0 0 880 380" font-family="-apple-system, Segoe UI, Helvetica, Arial, sans-serif" font-size="12">
<rect width="880" height="380" fill="#ffffff"/>
<text x="440.0" y="22" text-anchor="middle" fill="#24292f" font-size="15" font-weight="600">Memory footprint — bytes per key (lower is better)</text>
<line x1="70" y1="320.0" x2="860" y2="320.0" stroke="#d0d7de" stroke-width="1"/>
<text x="62" y="324.0" text-anchor="end" fill="#24292f">0</text>
<line x1="70" y1="268.0" x2="860" y2="268.0" stroke="#d0d7de" stroke-width="1"/>
<text x="62" y="272.0" text-anchor="end" fill="#24292f">459</text>
<line x1="70" y1="216.0" x2="860" y2="216.0" stroke="#d0d7de" stroke-width="1"/>
<text x="62" y="220.0" text-anchor="end" fill="#24292f">919</text>
<line x1="70" y1="164.0" x2="860" y2="164.0" stroke="#d0d7de" stroke-width="1"/>
<text x="62" y="168.0" text-anchor="end" fill="#24292f">1,378</text>
<line x1="70" y1="112.00000000000003" x2="860" y2="112.00000000000003" stroke="#d0d7de" stroke-width="1"/>
<text x="62" y="116.00000000000003" text-anchor="end" fill="#24292f">1,838</text>
<line x1="70" y1="60.0" x2="860" y2="60.0" stroke="#d0d7de" stroke-width="1"/>
<text x="62" y="64.0" text-anchor="end" fill="#24292f">2,298</text>
<line x1="70" y1="60" x2="70" y2="320" stroke="#57606a" stroke-width="1"/>
<line x1="70" y1="320" x2="860" y2="320" stroke="#57606a" stroke-width="1"/>
<text x="70.0" y="338" text-anchor="middle" fill="#24292f">3</text>
<text x="333.3333333333333" y="338" text-anchor="middle" fill="#24292f">64</text>
<text x="596.6666666666666" y="338" text-anchor="middle" fill="#24292f">256</text>
<text x="860.0" y="338" text-anchor="middle" fill="#24292f">1024</text>
<text x="440.0" y="352" text-anchor="middle" fill="#24292f">value size (bytes)</text>
<polyline fill="none" stroke="#3fb950" stroke-width="2.5" points="70.0,229.6 333.3,220.5 596.7,193.2 860.0,83.6"/>
<circle cx="70.0" cy="229.6" r="3.5" fill="#3fb950"/>
<circle cx="333.3" cy="220.5" r="3.5" fill="#3fb950"/>
<circle cx="596.7" cy="193.2" r="3.5" fill="#3fb950"/>
<circle cx="860.0" cy="83.6" r="3.5" fill="#3fb950"/>
<polyline fill="none" stroke="#f85149" stroke-width="2.5" points="70.0,312.0 333.3,304.9 596.7,277.4 860.0,168.0"/>
<circle cx="70.0" cy="312.0" r="3.5" fill="#f85149"/>
<circle cx="333.3" cy="304.9" r="3.5" fill="#f85149"/>
<circle cx="596.7" cy="277.4" r="3.5" fill="#f85149"/>
<circle cx="860.0" cy="168.0" r="3.5" fill="#f85149"/>
<rect x="70" y="361" width="14" height="14" fill="#3fb950"/>
<text x="90" y="372" fill="#24292f">Oktoplus</text>
<rect x="230" y="361" width="14" height="14" fill="#f85149"/>
<text x="250" y="372" fill="#24292f">Redis</text>
</svg>
