<svg xmlns="http://www.w3.org/2000/svg" width="880" height="420" viewBox="0 0 880 420" font-family="-apple-system, Segoe UI, Helvetica, Arial, sans-serif" font-size="12">
<rect width="880" height="420" fill="#ffffff"/>
<text x="440.0" y="22" text-anchor="middle" fill="#24292f" font-size="15" font-weight="600">Residual RSS after FLUSHALL — KiB (lower is better)</text>
<line x1="70" y1="350.0" x2="860" y2="350.0" stroke="#d0d7de" stroke-width="1"/>
<text x="62" y="354.0" text-anchor="end" fill="#24292f">0</text>
<line x1="70" y1="292.0" x2="860" y2="292.0" stroke="#d0d7de" stroke-width="1"/>
<text x="62" y="296.0" text-anchor="end" fill="#24292f">5,809</text>
<line x1="70" y1="234.0" x2="860" y2="234.0" stroke="#d0d7de" stroke-width="1"/>
<text x="62" y="238.0" text-anchor="end" fill="#24292f">11,619</text>
<line x1="70" y1="176.0" x2="860" y2="176.0" stroke="#d0d7de" stroke-width="1"/>
<text x="62" y="180.0" text-anchor="end" fill="#24292f">17,429</text>
<line x1="70" y1="118.00000000000003" x2="860" y2="118.00000000000003" stroke="#d0d7de" stroke-width="1"/>
<text x="62" y="122.00000000000003" text-anchor="end" fill="#24292f">23,239</text>
<line x1="70" y1="60.00000000000006" x2="860" y2="60.00000000000006" stroke="#d0d7de" stroke-width="1"/>
<text x="62" y="64.00000000000006" text-anchor="end" fill="#24292f">29,048</text>
<line x1="70" y1="60" x2="70" y2="350" stroke="#57606a" stroke-width="1"/>
<line x1="70" y1="350" x2="860" y2="350" stroke="#57606a" stroke-width="1"/>
<text x="119.375" y="368" text-anchor="middle" fill="#24292f">100k/3B</text>
<rect x="81.4" y="214.6" width="35.5" height="135.4" fill="#3fb950"/>
<rect x="121.8" y="248.1" width="35.5" height="101.9" fill="#f85149"/>
<text x="218.125" y="368" text-anchor="middle" fill="#24292f">100k/64B</text>
<rect x="180.1" y="229.6" width="35.5" height="120.4" fill="#3fb950"/>
<rect x="220.6" y="250.1" width="35.5" height="99.9" fill="#f85149"/>
<text x="316.875" y="368" text-anchor="middle" fill="#24292f">100k/256B</text>
<rect x="278.9" y="189.0" width="35.5" height="161.0" fill="#3fb950"/>
<rect x="319.3" y="249.6" width="35.5" height="100.4" fill="#f85149"/>
<text x="415.625" y="368" text-anchor="middle" fill="#24292f">100k/1024B</text>
<rect x="377.6" y="208.6" width="35.5" height="141.4" fill="#3fb950"/>
<rect x="418.1" y="240.4" width="35.5" height="109.6" fill="#f85149"/>
<text x="514.375" y="368" text-anchor="middle" fill="#24292f">1M/3B</text>
<rect x="476.4" y="187.1" width="35.5" height="162.9" fill="#3fb950"/>
<rect x="516.8" y="234.7" width="35.5" height="115.3" fill="#f85149"/>
<text x="613.125" y="368" text-anchor="middle" fill="#24292f">1M/64B</text>
<rect x="575.1" y="208.3" width="35.5" height="141.7" fill="#3fb950"/>
<rect x="615.6" y="232.8" width="35.5" height="117.2" fill="#f85149"/>
<text x="711.875" y="368" text-anchor="middle" fill="#24292f">1M/256B</text>
<rect x="673.9" y="154.3" width="35.5" height="195.7" fill="#3fb950"/>
<rect x="714.3" y="208.6" width="35.5" height="141.4" fill="#f85149"/>
<text x="810.625" y="368" text-anchor="middle" fill="#24292f">1M/1024B</text>
<rect x="772.6" y="86.4" width="35.5" height="263.6" fill="#3fb950"/>
<rect x="813.1" y="112.8" width="35.5" height="237.2" fill="#f85149"/>
<line x1="70" y1="255.0" x2="860" y2="255.0" stroke="#3fb950" stroke-width="1.5" stroke-dasharray="6,4"/>
<line x1="70" y1="257.0" x2="860" y2="257.0" stroke="#f85149" stroke-width="1.5" stroke-dasharray="6,4"/>
<rect x="70" y="391" width="14" height="14" fill="#3fb950"/>
<text x="90" y="402" fill="#24292f">Oktoplus</text>
<rect x="270" y="391" width="14" height="14" fill="#f85149"/>
<text x="290" y="402" fill="#24292f">Redis</text>
<line x1="470" y1="398" x2="484" y2="398" stroke="#3fb950" stroke-width="2" stroke-dasharray="4,3"/>
<text x="490" y="402" fill="#24292f">Oktoplus baseline (9.3 MiB)</text>
<line x1="670" y1="398" x2="684" y2="398" stroke="#f85149" stroke-width="2" stroke-dasharray="4,3"/>
<text x="690" y="402" fill="#24292f">Redis baseline (9.1 MiB)</text>
</svg>
