<svg xmlns="http://www.w3.org/2000/svg" width="880" height="380" viewBox="0 0 880 380" font-family="-apple-system, Segoe UI, Helvetica, Arial, sans-serif" font-size="12">
<rect width="880" height="380" fill="#ffffff"/>
<text x="440.0" y="22" text-anchor="middle" fill="#24292f" font-size="15" font-weight="600">LPOS scan on 10K-element lists, multi-key, varying clients (-P 16) — rps (higher is better)</text>
<line x1="70" y1="320.0" x2="860" y2="320.0" stroke="#d0d7de" stroke-width="1"/>
<text x="62" y="324.0" text-anchor="end" fill="#24292f">0</text>
<line x1="70" y1="268.0" x2="860" y2="268.0" stroke="#d0d7de" stroke-width="1"/>
<text x="62" y="272.0" text-anchor="end" fill="#24292f">141,935</text>
<line x1="70" y1="216.0" x2="860" y2="216.0" stroke="#d0d7de" stroke-width="1"/>
<text x="62" y="220.0" text-anchor="end" fill="#24292f">283,870</text>
<line x1="70" y1="164.0" x2="860" y2="164.0" stroke="#d0d7de" stroke-width="1"/>
<text x="62" y="168.0" text-anchor="end" fill="#24292f">425,806</text>
<line x1="70" y1="112.0" x2="860" y2="112.0" stroke="#d0d7de" stroke-width="1"/>
<text x="62" y="116.0" text-anchor="end" fill="#24292f">567,741</text>
<line x1="70" y1="60.0" x2="860" y2="60.0" stroke="#d0d7de" stroke-width="1"/>
<text x="62" y="64.0" text-anchor="end" fill="#24292f">709,677</text>
<line x1="70" y1="60" x2="70" y2="320" stroke="#57606a" stroke-width="1"/>
<line x1="70" y1="320" x2="860" y2="320" stroke="#57606a" stroke-width="1"/>
<text x="70.0" y="338" text-anchor="middle" fill="#24292f">1</text>
<text x="267.5" y="338" text-anchor="middle" fill="#24292f">4</text>
<text x="465.0" y="338" text-anchor="middle" fill="#24292f">16</text>
<text x="662.5" y="338" text-anchor="middle" fill="#24292f">64</text>
<text x="860.0" y="338" text-anchor="middle" fill="#24292f">128</text>
<text x="440.0" y="352" text-anchor="middle" fill="#24292f">concurrent clients</text>
<polyline fill="none" stroke="#3fb950" stroke-width="2.5" points="70.0,297.0 267.5,232.8 465.0,116.5 662.5,122.0 860.0,83.6"/>
<circle cx="70.0" cy="297.0" r="3.5" fill="#3fb950"/>
<circle cx="267.5" cy="232.8" r="3.5" fill="#3fb950"/>
<circle cx="465.0" cy="116.5" r="3.5" fill="#3fb950"/>
<circle cx="662.5" cy="122.0" r="3.5" fill="#3fb950"/>
<circle cx="860.0" cy="83.6" r="3.5" fill="#3fb950"/>
<polyline fill="none" stroke="#f85149" stroke-width="2.5" points="70.0,316.9 267.5,316.8 465.0,316.8 662.5,316.8 860.0,316.9"/>
<circle cx="70.0" cy="316.9" r="3.5" fill="#f85149"/>
<circle cx="267.5" cy="316.8" r="3.5" fill="#f85149"/>
<circle cx="465.0" cy="316.8" r="3.5" fill="#f85149"/>
<circle cx="662.5" cy="316.8" r="3.5" fill="#f85149"/>
<circle cx="860.0" cy="316.9" r="3.5" fill="#f85149"/>
<rect x="70" y="361" width="14" height="14" fill="#3fb950"/>
<text x="90" y="372" fill="#24292f">Oktoplus</text>
<rect x="230" y="361" width="14" height="14" fill="#f85149"/>
<text x="250" y="372" fill="#24292f">Redis</text>
</svg>
