<svg xmlns="http://www.w3.org/2000/svg" width="880" height="420" viewBox="0 0 880 420" font-family="-apple-system, Segoe UI, Helvetica, Arial, sans-serif" font-size="12">
<rect width="880" height="420" fill="#ffffff"/>
<text x="440.0" y="22" text-anchor="middle" fill="#24292f" font-size="15" font-weight="600">Residual RSS after FLUSHALL — KiB (lower is better)</text>
<line x1="70" y1="350.0" x2="860" y2="350.0" stroke="#d0d7de" stroke-width="1"/>
<text x="62" y="354.0" text-anchor="end" fill="#24292f">0</text>
<line x1="70" y1="292.0" x2="860" y2="292.0" stroke="#d0d7de" stroke-width="1"/>
<text x="62" y="296.0" text-anchor="end" fill="#24292f">7,989</text>
<line x1="70" y1="234.0" x2="860" y2="234.0" stroke="#d0d7de" stroke-width="1"/>
<text x="62" y="238.0" text-anchor="end" fill="#24292f">15,979</text>
<line x1="70" y1="175.99999999999997" x2="860" y2="175.99999999999997" stroke="#d0d7de" stroke-width="1"/>
<text x="62" y="179.99999999999997" text-anchor="end" fill="#24292f">23,968</text>
<line x1="70" y1="118.0" x2="860" y2="118.0" stroke="#d0d7de" stroke-width="1"/>
<text x="62" y="122.0" text-anchor="end" fill="#24292f">31,958</text>
<line x1="70" y1="60.0" x2="860" y2="60.0" stroke="#d0d7de" stroke-width="1"/>
<text x="62" y="64.0" text-anchor="end" fill="#24292f">39,947</text>
<line x1="70" y1="60" x2="70" y2="350" stroke="#57606a" stroke-width="1"/>
<line x1="70" y1="350" x2="860" y2="350" stroke="#57606a" stroke-width="1"/>
<text x="119.375" y="368" text-anchor="middle" fill="#24292f">100k/3B</text>
<rect x="81.4" y="183.1" width="35.5" height="166.9" fill="#3fb950"/>
<rect x="121.8" y="279.4" width="35.5" height="70.6" fill="#f85149"/>
<text x="218.125" y="368" text-anchor="middle" fill="#24292f">100k/64B</text>
<rect x="180.1" y="191.6" width="35.5" height="158.4" fill="#3fb950"/>
<rect x="220.6" y="276.7" width="35.5" height="73.3" fill="#f85149"/>
<text x="316.875" y="368" text-anchor="middle" fill="#24292f">100k/256B</text>
<rect x="278.9" y="162.7" width="35.5" height="187.3" fill="#3fb950"/>
<rect x="319.3" y="277.0" width="35.5" height="73.0" fill="#f85149"/>
<text x="415.625" y="368" text-anchor="middle" fill="#24292f">100k/1024B</text>
<rect x="377.6" y="176.5" width="35.5" height="173.5" fill="#3fb950"/>
<rect x="418.1" y="270.1" width="35.5" height="79.9" fill="#f85149"/>
<text x="514.375" y="368" text-anchor="middle" fill="#24292f">1M/3B</text>
<rect x="476.4" y="159.7" width="35.5" height="190.3" fill="#3fb950"/>
<rect x="516.8" y="266.3" width="35.5" height="83.7" fill="#f85149"/>
<text x="613.125" y="368" text-anchor="middle" fill="#24292f">1M/64B</text>
<rect x="575.1" y="176.0" width="35.5" height="174.0" fill="#3fb950"/>
<rect x="615.6" y="264.7" width="35.5" height="85.3" fill="#f85149"/>
<text x="711.875" y="368" text-anchor="middle" fill="#24292f">1M/256B</text>
<rect x="673.9" y="136.9" width="35.5" height="213.1" fill="#3fb950"/>
<rect x="714.3" y="247.1" width="35.5" height="102.9" fill="#f85149"/>
<text x="810.625" y="368" text-anchor="middle" fill="#24292f">1M/1024B</text>
<rect x="772.6" y="86.4" width="35.5" height="263.6" fill="#3fb950"/>
<rect x="813.1" y="178.1" width="35.5" height="171.9" fill="#f85149"/>
<rect x="70" y="391" width="14" height="14" fill="#3fb950"/>
<text x="90" y="402" fill="#24292f">Oktoplus</text>
<rect x="230" y="391" width="14" height="14" fill="#f85149"/>
<text x="250" y="402" fill="#24292f">Redis</text>
</svg>
