<svg xmlns="http://www.w3.org/2000/svg" width="880" height="420" viewBox="0 0 880 420" font-family="-apple-system, Segoe UI, Helvetica, Arial, sans-serif" font-size="12">
<rect width="880" height="420" fill="#ffffff"/>
<text x="440.0" y="22" text-anchor="middle" fill="#24292f" font-size="15" font-weight="600">Residual RSS after FLUSHALL — KiB (lower is better)</text>
<line x1="70" y1="350.0" x2="860" y2="350.0" stroke="#d0d7de" stroke-width="1"/>
<text x="62" y="354.0" text-anchor="end" fill="#24292f">0</text>
<line x1="70" y1="292.0" x2="860" y2="292.0" stroke="#d0d7de" stroke-width="1"/>
<text x="62" y="296.0" text-anchor="end" fill="#24292f">7,976</text>
<line x1="70" y1="234.0" x2="860" y2="234.0" stroke="#d0d7de" stroke-width="1"/>
<text x="62" y="238.0" text-anchor="end" fill="#24292f">15,952</text>
<line x1="70" y1="176.0" x2="860" y2="176.0" stroke="#d0d7de" stroke-width="1"/>
<text x="62" y="180.0" text-anchor="end" fill="#24292f">23,928</text>
<line x1="70" y1="118.0" x2="860" y2="118.0" stroke="#d0d7de" stroke-width="1"/>
<text x="62" y="122.0" text-anchor="end" fill="#24292f">31,905</text>
<line x1="70" y1="60.0" x2="860" y2="60.0" stroke="#d0d7de" stroke-width="1"/>
<text x="62" y="64.0" text-anchor="end" fill="#24292f">39,881</text>
<line x1="70" y1="60" x2="70" y2="350" stroke="#57606a" stroke-width="1"/>
<line x1="70" y1="350" x2="860" y2="350" stroke="#57606a" stroke-width="1"/>
<text x="119.375" y="368" text-anchor="middle" fill="#24292f">100k/3B</text>
<rect x="81.4" y="181.4" width="35.5" height="168.6" fill="#3fb950"/>
<rect x="121.8" y="275.2" width="35.5" height="74.8" fill="#f85149"/>
<text x="218.125" y="368" text-anchor="middle" fill="#24292f">100k/64B</text>
<rect x="180.1" y="191.1" width="35.5" height="158.9" fill="#3fb950"/>
<rect x="220.6" y="276.4" width="35.5" height="73.6" fill="#f85149"/>
<text x="316.875" y="368" text-anchor="middle" fill="#24292f">100k/256B</text>
<rect x="278.9" y="161.1" width="35.5" height="188.9" fill="#3fb950"/>
<rect x="319.3" y="276.6" width="35.5" height="73.4" fill="#f85149"/>
<text x="415.625" y="368" text-anchor="middle" fill="#24292f">100k/1024B</text>
<rect x="377.6" y="173.6" width="35.5" height="176.4" fill="#3fb950"/>
<rect x="418.1" y="270.0" width="35.5" height="80.0" fill="#f85149"/>
<text x="514.375" y="368" text-anchor="middle" fill="#24292f">1M/3B</text>
<rect x="476.4" y="158.9" width="35.5" height="191.1" fill="#3fb950"/>
<rect x="516.8" y="265.8" width="35.5" height="84.2" fill="#f85149"/>
<text x="613.125" y="368" text-anchor="middle" fill="#24292f">1M/64B</text>
<rect x="575.1" y="174.6" width="35.5" height="175.4" fill="#3fb950"/>
<rect x="615.6" y="264.3" width="35.5" height="85.7" fill="#f85149"/>
<text x="711.875" y="368" text-anchor="middle" fill="#24292f">1M/256B</text>
<rect x="673.9" y="135.3" width="35.5" height="214.7" fill="#3fb950"/>
<rect x="714.3" y="247.0" width="35.5" height="103.0" fill="#f85149"/>
<text x="810.625" y="368" text-anchor="middle" fill="#24292f">1M/1024B</text>
<rect x="772.6" y="86.4" width="35.5" height="263.6" fill="#3fb950"/>
<rect x="813.1" y="177.6" width="35.5" height="172.4" fill="#f85149"/>
<rect x="70" y="391" width="14" height="14" fill="#3fb950"/>
<text x="90" y="402" fill="#24292f">Oktoplus</text>
<rect x="230" y="391" width="14" height="14" fill="#f85149"/>
<text x="250" y="402" fill="#24292f">Redis</text>
</svg>
