<svg xmlns="http://www.w3.org/2000/svg" width="880" height="420" viewBox="0 0 880 420" font-family="-apple-system, Segoe UI, Helvetica, Arial, sans-serif" font-size="12">
<rect width="880" height="420" fill="#ffffff"/>
<text x="440.0" y="22" text-anchor="middle" fill="#24292f" font-size="15" font-weight="600">Single client, no pipelining (-P 1) — rps (higher is better)</text>
<line x1="70" y1="350.0" x2="860" y2="350.0" stroke="#d0d7de" stroke-width="1"/>
<text x="62" y="354.0" text-anchor="end" fill="#24292f">0</text>
<line x1="70" y1="292.0" x2="860" y2="292.0" stroke="#d0d7de" stroke-width="1"/>
<text x="62" y="296.0" text-anchor="end" fill="#24292f">7,119</text>
<line x1="70" y1="234.0" x2="860" y2="234.0" stroke="#d0d7de" stroke-width="1"/>
<text x="62" y="238.0" text-anchor="end" fill="#24292f">14,239</text>
<line x1="70" y1="176.0" x2="860" y2="176.0" stroke="#d0d7de" stroke-width="1"/>
<text x="62" y="180.0" text-anchor="end" fill="#24292f">21,359</text>
<line x1="70" y1="118.00000000000003" x2="860" y2="118.00000000000003" stroke="#d0d7de" stroke-width="1"/>
<text x="62" y="122.00000000000003" text-anchor="end" fill="#24292f">28,478</text>
<line x1="70" y1="60.0" x2="860" y2="60.0" stroke="#d0d7de" stroke-width="1"/>
<text x="62" y="64.0" text-anchor="end" fill="#24292f">35,598</text>
<line x1="70" y1="60" x2="70" y2="350" stroke="#57606a" stroke-width="1"/>
<line x1="70" y1="350" x2="860" y2="350" stroke="#57606a" stroke-width="1"/>
<text x="126.42857142857143" y="368" text-anchor="middle" fill="#24292f">LPUSH</text>
<rect x="83.0" y="109.3" width="40.6" height="240.7" fill="#3fb950"/>
<rect x="129.2" y="102.2" width="40.6" height="247.8" fill="#f85149"/>
<text x="239.28571428571428" y="368" text-anchor="middle" fill="#24292f">SADD</text>
<rect x="195.8" y="87.1" width="40.6" height="262.9" fill="#3fb950"/>
<rect x="242.1" y="110.4" width="40.6" height="239.6" fill="#f85149"/>
<text x="352.14285714285717" y="368" text-anchor="middle" fill="#24292f">LRANGE_100</text>
<rect x="308.7" y="136.7" width="40.6" height="213.3" fill="#3fb950"/>
<rect x="355.0" y="149.4" width="40.6" height="200.6" fill="#f85149"/>
<text x="465.0" y="368" text-anchor="middle" fill="#24292f">LPOP (rand)</text>
<rect x="421.6" y="98.6" width="40.6" height="251.4" fill="#3fb950"/>
<rect x="467.8" y="114.4" width="40.6" height="235.6" fill="#f85149"/>
<text x="577.8571428571429" y="368" text-anchor="middle" fill="#24292f">RPOP (rand)</text>
<rect x="534.4" y="110.4" width="40.6" height="239.6" fill="#3fb950"/>
<rect x="580.7" y="115.9" width="40.6" height="234.1" fill="#f85149"/>
<text x="690.7142857142858" y="368" text-anchor="middle" fill="#24292f">LLEN (rand)</text>
<rect x="647.3" y="97.5" width="40.6" height="252.5" fill="#3fb950"/>
<rect x="693.5" y="115.2" width="40.6" height="234.8" fill="#f85149"/>
<text x="803.5714285714286" y="368" text-anchor="middle" fill="#24292f">SCARD (rand)</text>
<rect x="760.1" y="86.4" width="40.6" height="263.6" fill="#3fb950"/>
<rect x="806.4" y="115.4" width="40.6" height="234.6" fill="#f85149"/>
<rect x="70" y="391" width="14" height="14" fill="#3fb950"/>
<text x="90" y="402" fill="#24292f">Oktoplus</text>
<rect x="270" y="391" width="14" height="14" fill="#f85149"/>
<text x="290" y="402" fill="#24292f">Redis</text>
</svg>
